<?xml version="1.0" encoding="UTF-8"?><svg id="Layer_2" xmlns="http://www.w3.org/2000/svg" viewBox="0 0 386.7 385.19"><defs><style>.cls-1{fill:#2c221b;stroke-width:0px;}</style></defs><g id="Layer_1-2"><path class="cls-1" d="m286.14,122.4c-2.19-5.53-4.74-9.48-8.92-13.67-4.13-4.13-8.13-6.74-13.66-8.88-4.19-1.63-10.46-3.58-22.08-4.09-12.5-.56-16.26-.7-48.05-.7h0c-31.79,0-35.56.14-48.06.7-11.58.51-17.89,2.46-22.08,4.09-5.53,2.19-9.48,4.74-13.67,8.92-4.13,4.14-6.74,8.14-8.88,13.67-1.63,4.19-3.58,10.46-4.09,22.08-.56,12.51-.7,16.32-.7,48.06s.14,35.51.7,48.06c.51,11.57,2.46,17.89,4.09,22.08,2.19,5.53,4.74,9.47,8.92,13.66,4.14,4.14,8.14,6.74,13.67,8.88,4.19,1.63,10.46,3.58,22.08,4.09,12.51.56,16.32.7,48.06.7s35.51-.14,48.06-.7c11.57-.51,17.89-2.46,22.08-4.09,5.53-2.19,9.47-4.74,13.66-8.92,4.14-4.13,6.74-8.13,8.88-13.66,1.63-4.19,3.58-10.46,4.09-22.08.56-12.51.7-16.32.7-48.06s-.14-35.51-.7-48.06c-.51-11.58-2.46-17.89-4.09-22.08Zm-92.72,131.34c-33.75,0-61.12-27.37-61.12-61.12s27.38-61.12,61.12-61.12,61.12,27.38,61.12,61.12-27.37,61.12-61.12,61.12Zm63.53-110.39c-7.88,0-14.27-6.39-14.27-14.27s6.39-14.27,14.27-14.27,14.27,6.39,14.27,14.27-6.39,14.27-14.27,14.27Z"/><circle class="cls-1" cx="193.42" cy="192.62" r="39.64"/><path class="cls-1" d="m385.25,143.02c-.97-10.08-1.93-20.08-2.9-29.99v-3.62c0-2.54.42-4.56,1.27-6.07.84-1.51,1.27-3.47,1.27-5.89V9.38c0-.6-.06-1.3-.18-2.08-.12-.78-.18-1.24-.18-1.36-.24-2.05-1.39-3.2-3.44-3.44h-1.26c-1.02-.99-2.24-1.77-3.66-2.32-.36,0-1.09-.03-2.17-.09-1.09-.06-2.21-.09-3.35-.09h-5.16c-4.71,0-9.36.3-13.95.91-4.59.61-9.36.91-14.32.91-5.44,0-10.9-.3-16.4-.91-5.5-.6-10.96-.91-16.4-.91-6.64,0-13.26.3-19.84.91-6.58.61-13.14.91-19.66.91h-13.59c-.12-.24-.54-.57-1.27-1-.73-.42-1.21-.63-1.45-.63,0-.12-.24-.18-.72-.18h-.18c-.12,0-.24.06-.36.18-.12,0-.48.15-1.09.45-.6.3-1.21.63-1.81,1-.6.36-1.15.73-1.63,1.09-.48.36-.73.61-.73.72h-.72c-4.23,0-8.33-.27-12.32-.82-3.99-.54-8.03-.82-12.14-.82h-9.6c-.24,0-1.12.18-2.63.54-1.51.36-2.57.72-3.17,1.09h-5.25c-.36-.12-1.12-.36-2.27-.72-1.15-.36-2.38-.73-3.71-1.09-1.33-.36-2.63-.69-3.9-1-1.27-.3-2.08-.45-2.45-.45-1.81-.12-3.35-.18-4.62-.18h-6.98c-10.03,0-20.08.48-30.17,1.45-10.08.97-20.08,1.93-29.99,2.9h-3.62c-2.54,0-4.56-.42-6.07-1.27-1.51-.84-3.47-1.27-5.89-1.27h-6.01s-.04-.02-.07-.03c-.72-.3-1.48-.54-2.26-.73-.79-.18-1.36-.27-1.72-.27-1.09-.24-2.26-.36-3.53-.36h-3.35c-3.26,0-6.55.18-9.88.54-1.57.17-3.1.46-4.6.84H8.52c-.6,0-1.3.06-2.08.18-.78.12-1.24.18-1.36.18-2.05.24-3.2,1.39-3.44,3.44v1.45c0,.36.06,1.3.18,2.81.12,1.51.27,3.11.45,4.8.18,1.69.33,3.29.45,4.8.12,1.51.18,2.51.18,2.99v2.17c0,1.69-.27,3.44-.82,5.25-.54,1.81-.82,3.75-.82,5.8,0,1.09.27,2.02.82,2.81.54.79.82,1.84.82,3.17v1.27c0,.24-.06.73-.18,1.45-.12.72-.27,1.48-.45,2.27-.18.79-.33,1.54-.45,2.26-.12.73-.18,1.21-.18,1.45v.91c0,.24.06.97.18,2.17.12,1.21.27,2.54.45,3.99.18,1.45.33,2.81.45,4.08.12,1.27.18,2.02.18,2.26,0,.36-.12,1.21-.36,2.54-.24,1.33-.54,2.81-.91,4.44-.36,1.63-.69,3.11-1,4.44-.3,1.33-.51,2.17-.63,2.54v2.17c0,.48.21,1.12.63,1.9.42.79.76,1.18,1,1.18.72,2.06,1.18,3.87,1.36,5.44.15,1.33.47,2.45.93,3.39.06,2.39.28,4.79.7,7.18.48,2.78.72,5.68.72,8.7,0,5.2-.51,10.3-1.54,15.31-1.03,5.01-1.54,10.24-1.54,15.67,0,6.16.51,12.17,1.54,18.03,1.03,5.86,1.54,11.87,1.54,18.03,0,6.52-.12,12.96-.36,19.3-.24,6.34-.97,12.66-2.17,18.94v81.03c-.06.14-.12.26-.18.4-.3.73-.54,1.48-.72,2.27-.18.79-.27,1.36-.27,1.72-.24,1.09-.36,2.26-.36,3.53v3.35c0,3.26.18,6.55.54,9.88.19,1.76.53,3.47.99,5.15v37.81c-.73.24-1.21.79-1.45,1.63-.24.84-.36,1.63-.36,2.36,0,.6.06,1.27.18,1.99.12.72.18,1.33.18,1.81,0,5.55,1.36,9.45,4.08,11.69,1.55,1.28,3.56,2.17,6,2.72.72.34,1.5.58,2.34.71.33,0,.91-.05,1.72-.15.7.04,1.42.07,2.17.07.6.24,1.9.36,3.9.36h6.98c2.54,0,5.31-.03,8.34-.09,3.02-.06,5.83-.09,8.43-.09s4.89-.03,6.88-.09c1.05-.03,1.9-.06,2.56-.07.15.04.27.06.34.06h1.14c.45.21,1.43.39,2.93.55,1.69.18,3.47.36,5.35.54,1.87.18,3.62.33,5.25.45,1.63.12,2.63.18,2.99.18h11.6c1.45,0,2.87-.09,4.26-.27,1.34-.17,2.43-.67,3.26-1.47,2.66-.02,5.32-.25,7.97-.72,2.78-.48,5.68-.72,8.7-.72,5.2,0,10.3.51,15.31,1.54,5.01,1.03,10.24,1.54,15.67,1.54,6.16,0,12.17-.51,18.03-1.54,5.86-1.03,11.87-1.54,18.03-1.54,6.52,0,12.96.12,19.3.36,6.34.24,12.66.97,18.94,2.17h79.92c.46.34.97.62,1.55.82.91.3,1.9.48,2.99.54,1.09.06,2.17.09,3.26.09h2.17c.24.24.75.45,1.54.63.78.18,1.63.33,2.54.45.91.12,1.75.24,2.54.36.78.12,1.3.18,1.54.18.12,0,.45-.06,1-.18.54-.12,1.12-.24,1.72-.36.6-.12,1.21-.27,1.81-.45.6-.18.96-.39,1.09-.63.24,0,.78.06,1.63.18.84.12,1.69.18,2.54.18s1.27-.12,1.27-.36c.36,0,1-.06,1.9-.18.91-.12,1.87-.21,2.9-.27,1.03-.06,1.99-.15,2.9-.27.91-.12,1.54-.18,1.9-.18h26.71c.3.43.74.73,1.35.91.84.24,1.63.36,2.36.36.6,0,1.27-.06,1.99-.18.72-.12,1.33-.18,1.81-.18,2.6,0,4.82-.31,6.7-.91h6.19c1.69,0,3.11-.54,4.26-1.63,1.15-1.09,2.02-2.42,2.63-3.99,0-.36.03-1.09.09-2.17.06-1.09.09-2.21.09-3.35v-5.16c0-4.71-.3-9.36-.91-13.95-.61-4.59-.91-9.36-.91-14.31,0-5.44.3-10.9.91-16.4.6-5.5.91-10.96.91-16.4,0-6.64-.3-13.26-.91-19.84-.61-6.58-.91-13.14-.91-19.66v-13.59c.24-.12.57-.54,1-1.27.42-.72.63-1.21.63-1.45.12,0,.18-.24.18-.72v-.18c0-.12-.06-.24-.18-.36,0-.12-.15-.48-.45-1.09-.3-.6-.63-1.21-1-1.81-.36-.6-.72-1.15-1.09-1.63-.36-.48-.61-.72-.72-.72v-.73c0-4.23.27-8.33.82-12.32s.82-8.03.82-12.14v-9.6c0-.24-.18-1.12-.54-2.63-.36-1.51-.72-2.56-1.09-3.17v-5.25c.12-.36.36-1.12.72-2.26.36-1.15.72-2.38,1.09-3.71.36-1.33.69-2.63,1-3.9.3-1.27.45-2.08.45-2.45.12-1.81.18-3.35.18-4.62v-6.98c0-10.03-.48-20.08-1.45-30.17Zm-73.69,98.68c-.56,12.64-2.6,21.28-5.53,28.86-3.02,7.81-7.12,14.45-13.71,21.05s-13.24,10.69-21.05,13.71c-7.53,2.93-16.22,4.97-28.86,5.53-12.69.56-16.73.7-49.04.7s-36.35-.14-49.04-.7c-12.64-.56-21.28-2.6-28.86-5.53-7.81-3.02-14.46-7.12-21.05-13.71-6.65-6.6-10.69-13.24-13.76-21.1-2.93-7.53-4.97-16.22-5.53-28.86-.56-12.69-.7-16.73-.7-49.04s.14-36.34.7-49.08c.56-12.64,2.6-21.28,5.53-28.86,3.06-7.81,7.11-14.45,13.76-21.05,6.6-6.65,13.24-10.69,21.1-13.76,7.53-2.93,16.22-4.97,28.86-5.53,12.69-.56,16.73-.7,49.04-.7h0c32.3,0,36.35.13,49.08.74,12.64.56,21.28,2.6,28.86,5.53,7.81,3.02,14.46,7.12,21.05,13.71,6.64,6.6,10.69,13.24,13.62,21.15,2.93,7.53,4.97,16.22,5.53,28.86.56,12.69.7,16.73.7,49.04s-.14,36.35-.7,49.04Z"/></g></svg>